<svg xmlns="http://www.w3.org/2000/svg" xmlns:xlink="http://www.w3.org/1999/xlink" viewBox="0 0 203.5 203.5"><defs><style>.cls-1{fill:none;}.cls-2{clip-path:url(#clip-path);}.cls-3{fill:#fff;}.cls-4{fill:#1d1d1b;}</style><clipPath id="clip-path" transform="translate(0 0)"><rect class="cls-1" width="203.5" height="203.5"/></clipPath></defs><title>dltx-white-svgAsset 2</title><g id="Layer_2" data-name="Layer 2"><g id="Layer_2-2" data-name="Layer 2"><g class="cls-2"><g class="cls-2"><path class="cls-3" d="M203.5,101.75A101.75,101.75,0,1,1,101.75,0,101.74,101.74,0,0,1,203.5,101.75" transform="translate(0 0)"/></g><path class="cls-4" d="M56.84,73.78H63a2,2,0,0,1-.44,1.2,1.62,1.62,0,0,0-.32,1.09l.07,47.78a13.51,13.51,0,0,0,.34,3.39H56.91a8.43,8.43,0,0,1-.35-2.7v-3.19a13,13,0,0,1-11.34,6.71c-7.09,0-14.59-5.92-14.59-19.48,0-14,8.45-19,15.44-19,5.08,0,9,2.55,10.77,6.32ZM36.23,107.64c0,12.09,6.18,15.32,10.34,15.32a9.67,9.67,0,0,0,9-7,21.81,21.81,0,0,0,.76-6.68c0-4.1-.16-6.15-.61-7.86a9.55,9.55,0,0,0-9.42-7.16C42.12,94.3,36.23,97.19,36.23,107.64Z" transform="translate(0 0)"/><path class="cls-4" d="M88.61,73.85V122.6H99.43v4.64H71.9V122.6H82.79V78.5H72.39V73.85Z" transform="translate(0 0)"/><path class="cls-4" d="M120.77,79.67c.28.82-.3,1.32-.46,2.18-.37,2-.93,8.64-.93,8.64h12v4.79H119.31q-.69,7.16-.69,14.36a59.2,59.2,0,0,0,.23,7.06c.59,4.41,3.44,5.92,6.18,5.92,2.26,0,5.11-1,8.22-3.35l1.8,4.58a20.56,20.56,0,0,1-11.73,4.1A9.79,9.79,0,0,1,115,124c-2.14-3-2.17-6.7-2.17-10q0-9.35.77-18.76H105l.07-4.72h8.73l.7-9.85Z" transform="translate(0 0)"/><path class="cls-4" d="M172.93,90.49,161,108.37l13.5,18.87h-6.59L157.82,113l-9.58,14.27h-6.51l12.88-18.65-12.68-18.1h6.31l9.63,13.6L167,90.49Z" transform="translate(0 0)"/></g></g></g></svg>