<svg xmlns="http://www.w3.org/2000/svg" xmlns:xlink="http://www.w3.org/1999/xlink" viewBox="0 0 249.45 167.24"><defs><style>.cls-1{fill:none;}.cls-2{clip-path:url(#clip-path);}.cls-3{fill:#fff;}.cls-4{fill:#1d1d1b;}</style><clipPath id="clip-path" transform="translate(0 0)"><rect class="cls-1" width="249.45" height="167.24"/></clipPath></defs><title>dltx-card-lucas-svgAsset 5</title><g id="Layer_2" data-name="Layer 2"><g id="Layer_2-2" data-name="Layer 2"><g class="cls-2"><rect class="cls-3" width="249.45" height="167.24"/><path class="cls-4" d="M47.46,75.34a.65.65,0,0,1-.09.42.84.84,0,0,0-.14.49V90.6h8.13v1.64H45.26V75.34Z" transform="translate(0 0)"/><path class="cls-4" d="M60.68,79.85v6.89a5.77,5.77,0,0,0,.43,2.67,2.65,2.65,0,0,0,2.37,1.52,3.41,3.41,0,0,0,2.86-1.84,4.75,4.75,0,0,0,.48-2.44v-6.8h2V91.09a3.63,3.63,0,0,0,.14,1.12H66.87a6.18,6.18,0,0,1-.05-1l0-.93A4.47,4.47,0,0,1,63,92.52,4.17,4.17,0,0,1,59.18,90a7.67,7.67,0,0,1-.49-3.25l0-6.89Z" transform="translate(0 0)"/><path class="cls-4" d="M81.54,83.49c-.22-.16-.07-.41-.17-.62a3.79,3.79,0,0,0-3.2-1.62c-2.28,0-4.09,1.76-4.09,4.58s1.84,4.91,4.25,4.91a4.4,4.4,0,0,0,3.28-1.5l1.12,1.31a6.22,6.22,0,0,1-4.56,2c-3.5,0-6.1-2.76-6.1-6.49a6.12,6.12,0,0,1,6.22-6.44,5.46,5.46,0,0,1,4.63,2.29Z" transform="translate(0 0)"/><path class="cls-4" d="M91,79.57a4.79,4.79,0,0,1,4.31,2.05,5.32,5.32,0,0,1,.6,2.93v7.66H94V90.86a7.09,7.09,0,0,1-4.45,1.66c-2.58,0-4.16-1.69-4.16-3.51a3.87,3.87,0,0,1,2.84-3.53,16.07,16.07,0,0,1,5.35-.56H94v-.44a4,4,0,0,0-.4-2.13,2.71,2.71,0,0,0-2.54-1.19,4.84,4.84,0,0,0-3.55,1.38l-1-1.24A6,6,0,0,1,91,79.57Zm2.67,6.85a20.06,20.06,0,0,0-4.07.18,2.46,2.46,0,0,0-2.18,2.28A2.33,2.33,0,0,0,90,91a4.64,4.64,0,0,0,3.25-1.47,3,3,0,0,0,.84-2.33v-.81Z" transform="translate(0 0)"/><path class="cls-4" d="M108.2,83.19s-.14-.06-.14-.22a.33.33,0,0,0-.06-.26,4.49,4.49,0,0,0-3.43-1.7c-1.4,0-2.61.7-2.61,1.69,0,.42.22,1,1.23,1.51s3.15.84,4.54,1.62a3.12,3.12,0,0,1,1.82,2.8c0,1.87-1.77,3.86-5.15,3.86a7.59,7.59,0,0,1-5.22-2l1.12-1.94a.24.24,0,0,1,.12.25.35.35,0,0,0,.08.29,5.27,5.27,0,0,0,3.87,1.73c1.77,0,3.18-.8,3.18-2,0-.45-.21-1.1-1.24-1.58S104,86.57,103,86.19c-.67-.24-3-1-3-3.19,0-1.85,1.89-3.46,4.76-3.46a6.14,6.14,0,0,1,4.62,1.94Z" transform="translate(0 0)"/><path class="cls-4" d="M137.42,78.54l-1.8.89a.32.32,0,0,1-.13-.27c0-.07,0-.13,0-.2a.46.46,0,0,0-.1-.29,3.8,3.8,0,0,0-3.23-2c-2.39,0-4.51,2.51-4.51,7s2.18,7.16,4.67,7.16a4.13,4.13,0,0,0,3.44-2.06l1.4.91a5.81,5.81,0,0,1-5,2.78c-2.78,0-6.41-2.1-6.41-8.62,0-6.75,3.8-8.67,6.42-8.67A5.65,5.65,0,0,1,137.42,78.54Z" transform="translate(0 0)"/><path class="cls-4" d="M141.94,79.85v6.89a5.9,5.9,0,0,0,.43,2.67,2.65,2.65,0,0,0,2.37,1.52,3.41,3.41,0,0,0,2.86-1.84,4.76,4.76,0,0,0,.49-2.44v-6.8h2V91.09a3.63,3.63,0,0,0,.14,1.12h-2.06a5.14,5.14,0,0,1,0-1l0-.93a4.47,4.47,0,0,1-3.82,2.2A4.17,4.17,0,0,1,140.44,90a7.67,7.67,0,0,1-.49-3.25l0-6.89Z" transform="translate(0 0)"/><path class="cls-4" d="M159.57,74.21V90.65h3.65v1.56h-9.28V90.65h3.67V75.78H154.1V74.21Z" transform="translate(0 0)"/><path class="cls-4" d="M173.12,74.21V90.65h3.64v1.56h-9.28V90.65h3.67V75.78h-3.5V74.21Z" transform="translate(0 0)"/><path class="cls-4" d="M190.8,83.94a9.08,9.08,0,0,1,.09,2.36h-8.78c.15,3.7,2.54,4.62,4.2,4.62a4.27,4.27,0,0,0,3.2-1.39l1.08,1a5.65,5.65,0,0,1-4.43,1.92c-3.36,0-5.95-2.21-5.95-6.33,0-4.52,2.74-6.63,5.69-6.63A4.78,4.78,0,0,1,190.8,83.94ZM189,84.8a3.27,3.27,0,0,0-3.2-3.76c-1.33,0-3.21.84-3.6,3.76Z" transform="translate(0 0)"/><path class="cls-4" d="M194.29,79.85h2V82a5.14,5.14,0,0,1,4.11-2.48,3.55,3.55,0,0,1,3.29,2.19,7.09,7.09,0,0,1,.45,3v7.5h-1.92V84.76a4.08,4.08,0,0,0-.67-2.74,2.17,2.17,0,0,0-1.68-.78,4.22,4.22,0,0,0-3,1.72,3.17,3.17,0,0,0-.61,2.12v7.13h-2Z" transform="translate(0 0)"/><path class="cls-4" d="M45.65,108.16a1.45,1.45,0,0,1,1.18.49,2.29,2.29,0,0,1,.39,1.44,2.25,2.25,0,0,1-.41,1.43,1.45,1.45,0,0,1-1.17.5,1.52,1.52,0,0,1-.71-.17,1.26,1.26,0,0,1-.51-.46h0l-.09.56h-.21v-5.32h.33V108c0,.2,0,.38,0,.55v.29h0a1.42,1.42,0,0,1,.52-.49A1.52,1.52,0,0,1,45.65,108.16Zm0,.31a1.1,1.1,0,0,0-.94.38,2.07,2.07,0,0,0-.29,1.24v.06a1.88,1.88,0,0,0,.3,1.2,1.1,1.1,0,0,0,.92.37,1.05,1.05,0,0,0,.92-.43,2.08,2.08,0,0,0,.3-1.21C46.86,109,46.46,108.47,45.65,108.47Z" transform="translate(0 0)"/><path class="cls-4" d="M49,112h-.33v-5.32H49Z" transform="translate(0 0)"/><path class="cls-4" d="M53.73,110.09a2.08,2.08,0,0,1-.44,1.42,1.51,1.51,0,0,1-1.21.51,1.52,1.52,0,0,1-1.44-.91,2.54,2.54,0,0,1-.19-1,2.07,2.07,0,0,1,.44-1.42,1.5,1.5,0,0,1,1.21-.51,1.47,1.47,0,0,1,1.2.52A2.1,2.1,0,0,1,53.73,110.09Zm-2.93,0a1.83,1.83,0,0,0,.34,1.19,1.26,1.26,0,0,0,1.9,0,1.83,1.83,0,0,0,.34-1.19,1.92,1.92,0,0,0-.34-1.2,1.17,1.17,0,0,0-1-.42,1.15,1.15,0,0,0-.95.42A1.9,1.9,0,0,0,50.8,110.09Z" transform="translate(0 0)"/><path class="cls-4" d="M56.67,112a1.61,1.61,0,0,1-1.25-.5,2.06,2.06,0,0,1-.45-1.41,2,2,0,0,1,.47-1.43,1.61,1.61,0,0,1,1.28-.52,2.59,2.59,0,0,1,.92.17l-.09.3a2.62,2.62,0,0,0-.84-.16,1.29,1.29,0,0,0-1,.42,1.89,1.89,0,0,0-.35,1.22,1.79,1.79,0,0,0,.35,1.17,1.21,1.21,0,0,0,1,.43,2.42,2.42,0,0,0,.94-.18v.31A2.08,2.08,0,0,1,56.67,112Z" transform="translate(0 0)"/><path class="cls-4" d="M59.25,110.32l1.9-2.08h.41l-1.46,1.58L61.69,112h-.41l-1.41-1.88-.61.56V112h-.34v-5.32h.34v2.67l0,1Z" transform="translate(0 0)"/><path class="cls-4" d="M64.21,112a1.61,1.61,0,0,1-1.25-.5,2.42,2.42,0,0,1,0-2.84,1.62,1.62,0,0,1,1.28-.52,2.69,2.69,0,0,1,.93.17l-.1.3a2.61,2.61,0,0,0-.83-.16,1.29,1.29,0,0,0-1,.42,1.89,1.89,0,0,0-.35,1.22,1.79,1.79,0,0,0,.35,1.17,1.19,1.19,0,0,0,1,.43,2.39,2.39,0,0,0,.94-.18v.31A2,2,0,0,1,64.21,112Z" transform="translate(0 0)"/><path class="cls-4" d="M69.06,112v-2.41a1.15,1.15,0,0,0-.24-.81,1,1,0,0,0-.73-.26,1.27,1.27,0,0,0-1,.34,1.61,1.61,0,0,0-.3,1.09v2h-.34v-5.32h.34v1.69l0,.48h0a1.24,1.24,0,0,1,.53-.49,1.82,1.82,0,0,1,.79-.15c.84,0,1.26.45,1.26,1.36V112Z" transform="translate(0 0)"/><path class="cls-4" d="M73.27,112l-.08-.59h0a1.79,1.79,0,0,1-.58.51,1.51,1.51,0,0,1-.7.15,1.26,1.26,0,0,1-.85-.28,1,1,0,0,1-.3-.78,1,1,0,0,1,.45-.84,2.45,2.45,0,0,1,1.31-.32l.71,0v-.25a1.23,1.23,0,0,0-.22-.8.82.82,0,0,0-.69-.27,2.36,2.36,0,0,0-1.07.29l-.13-.29a2.89,2.89,0,0,1,1.21-.29,1.22,1.22,0,0,1,.92.32,1.4,1.4,0,0,1,.3,1V112Zm-1.37-.24a1.19,1.19,0,0,0,1.29-1.28v-.37l-.65,0a2.36,2.36,0,0,0-1.12.24.71.71,0,0,0-.33.65.7.7,0,0,0,.21.54A.85.85,0,0,0,71.9,111.71Z" transform="translate(0 0)"/><path class="cls-4" d="M75.1,107.2q0-.33.21-.33a.2.2,0,0,1,.17.09.43.43,0,0,1,.06.24.38.38,0,0,1-.06.24.2.2,0,0,1-.17.09Q75.1,107.53,75.1,107.2Zm.38,4.75h-.34v-3.71h.34Z" transform="translate(0 0)"/><path class="cls-4" d="M79.73,112v-2.41a1.15,1.15,0,0,0-.24-.81.94.94,0,0,0-.73-.26,1.23,1.23,0,0,0-1,.34,1.56,1.56,0,0,0-.31,1.09v2h-.34v-3.71h.29l.06.5h0a1.41,1.41,0,0,1,1.29-.58c.84,0,1.27.45,1.27,1.36V112Z" transform="translate(0 0)"/><path class="cls-4" d="M86.83,108.24v.23l-.77,0a1.31,1.31,0,0,1,.3.84,1.15,1.15,0,0,1-.35.87,1.37,1.37,0,0,1-1,.33,1.63,1.63,0,0,1-.36,0,1,1,0,0,0-.3.25.47.47,0,0,0-.11.31.29.29,0,0,0,.13.26,1,1,0,0,0,.46.08h.65a1.51,1.51,0,0,1,.92.24.84.84,0,0,1,.32.72,1,1,0,0,1-.47.91,2.38,2.38,0,0,1-1.36.32,1.89,1.89,0,0,1-1.09-.27.88.88,0,0,1-.38-.75.89.89,0,0,1,.24-.64,1.23,1.23,0,0,1,.64-.34.79.79,0,0,1-.27-.2.55.55,0,0,1-.1-.31c0-.25.16-.46.48-.65a1.06,1.06,0,0,1-.51-.42,1.21,1.21,0,0,1-.18-.66,1.18,1.18,0,0,1,.35-.89,1.37,1.37,0,0,1,1-.34,1.73,1.73,0,0,1,.57.08Zm-3,4.34c0,.51.38.76,1.14.76,1,0,1.46-.31,1.46-.93a.54.54,0,0,0-.23-.48,1.39,1.39,0,0,0-.74-.15h-.61C84.16,111.78,83.82,112,83.82,112.58Zm.28-3.19a.87.87,0,0,0,.26.67,1,1,0,0,0,.7.24,1,1,0,0,0,.71-.24.86.86,0,0,0,.25-.68.9.9,0,0,0-.25-.71,1,1,0,0,0-.71-.24.94.94,0,0,0-.7.25A1,1,0,0,0,84.1,109.39Z" transform="translate(0 0)"/><path class="cls-4" d="M88.3,108.24v2.4a1.18,1.18,0,0,0,.24.82.94.94,0,0,0,.73.25,1.26,1.26,0,0,0,1-.33,1.58,1.58,0,0,0,.32-1.09v-2.05h.33V112h-.28l-.07-.51h0a1.41,1.41,0,0,1-1.29.58c-.84,0-1.26-.45-1.26-1.36v-2.42Z" transform="translate(0 0)"/><path class="cls-4" d="M95.15,112v-2.41a1.15,1.15,0,0,0-.24-.81,1,1,0,0,0-.73-.26,1.27,1.27,0,0,0-1,.34,1.61,1.61,0,0,0-.31,1.09v2h-.33v-3.71h.28l.07.5h0a1.41,1.41,0,0,1,1.29-.58c.84,0,1.26.45,1.26,1.36V112Z" transform="translate(0 0)"/><path class="cls-4" d="M99.28,108.63q0-.33.27-.33c.19,0,.28.11.28.33a.37.37,0,0,1-.08.26.28.28,0,0,1-.2.08.3.3,0,0,1-.2-.08A.37.37,0,0,1,99.28,108.63Zm0,3.05q0-.33.27-.33c.19,0,.28.11.28.33s-.09.34-.28.34S99.28,111.91,99.28,111.68Z" transform="translate(0 0)"/><path class="cls-4" d="M101.36,108.63q0-.33.27-.33c.19,0,.28.11.28.33a.33.33,0,0,1-.08.26.28.28,0,0,1-.2.08.27.27,0,0,1-.19-.08A.37.37,0,0,1,101.36,108.63Zm0,3.05q0-.33.27-.33c.19,0,.28.11.28.33s-.09.34-.28.34S101.36,111.91,101.36,111.68Z" transform="translate(0 0)"/><path class="cls-4" d="M106.09,112h-.34v-5.32h.34Z" transform="translate(0 0)"/><path class="cls-4" d="M107.7,107.2q0-.33.21-.33a.19.19,0,0,1,.17.09.43.43,0,0,1,.06.24.38.38,0,0,1-.06.24.19.19,0,0,1-.17.09Q107.7,107.53,107.7,107.2Zm.39,4.75h-.34v-3.71h.34Z" transform="translate(0 0)"/><path class="cls-4" d="M112.33,112v-2.41a1.21,1.21,0,0,0-.23-.81,1,1,0,0,0-.73-.26,1.25,1.25,0,0,0-1,.34,1.56,1.56,0,0,0-.31,1.09v2h-.34v-3.71H110l.06.5h0a1.4,1.4,0,0,1,1.28-.58c.85,0,1.27.45,1.27,1.36V112Z" transform="translate(0 0)"/><path class="cls-4" d="M114.62,110.32l1.9-2.08h.41l-1.46,1.58,1.59,2.13h-.41l-1.41-1.88-.61.56V112h-.34v-5.32h.34v2.67l0,1Z" transform="translate(0 0)"/><path class="cls-4" d="M119.6,112a1.62,1.62,0,0,1-1.26-.5,2,2,0,0,1-.46-1.4,2.17,2.17,0,0,1,.44-1.42,1.44,1.44,0,0,1,1.18-.54,1.31,1.31,0,0,1,1,.46,1.91,1.91,0,0,1,.37,1.24v.28h-2.67a1.71,1.71,0,0,0,.36,1.17,1.23,1.23,0,0,0,1,.4,3.13,3.13,0,0,0,.56,0,4.4,4.4,0,0,0,.61-.19v.3a2.6,2.6,0,0,1-.58.19A3.61,3.61,0,0,1,119.6,112Zm-.1-3.56a1.1,1.1,0,0,0-.86.36,1.64,1.64,0,0,0-.38,1h2.3a1.66,1.66,0,0,0-.28-1A.92.92,0,0,0,119.5,108.46Z" transform="translate(0 0)"/><path class="cls-4" d="M123.72,108.16a1.54,1.54,0,0,1,.7.15,1.37,1.37,0,0,1,.52.5h0c0-.28,0-.57,0-.84v-1.34h.34V112h-.22l-.09-.57h0a1.35,1.35,0,0,1-1.21.64,1.45,1.45,0,0,1-1.18-.48,2.1,2.1,0,0,1-.4-1.39,2.33,2.33,0,0,1,.4-1.48A1.41,1.41,0,0,1,123.72,108.16Zm0,.31a1,1,0,0,0-.91.43,2.06,2.06,0,0,0-.31,1.24c0,1,.41,1.58,1.23,1.58a1.1,1.1,0,0,0,.92-.37,1.89,1.89,0,0,0,.29-1.2v-.06a2.08,2.08,0,0,0-.28-1.24A1.13,1.13,0,0,0,123.72,108.47Z" transform="translate(0 0)"/><path class="cls-4" d="M126.89,107.2c0-.22.07-.33.22-.33a.18.18,0,0,1,.16.09.43.43,0,0,1,.06.24.38.38,0,0,1-.06.24.18.18,0,0,1-.16.09C127,107.53,126.89,107.42,126.89,107.2Zm.39,4.75h-.34v-3.71h.34Z" transform="translate(0 0)"/><path class="cls-4" d="M131.53,112v-2.41a1.15,1.15,0,0,0-.24-.81,1,1,0,0,0-.73-.26,1.27,1.27,0,0,0-1,.34,1.61,1.61,0,0,0-.31,1.09v2h-.33v-3.71h.28l.07.5h0a1.41,1.41,0,0,1,1.29-.58c.84,0,1.26.45,1.26,1.36V112Z" transform="translate(0 0)"/><path class="cls-4" d="M133.42,111.68q0-.33.27-.33c.19,0,.28.11.28.33s-.09.34-.28.34S133.42,111.91,133.42,111.68Z" transform="translate(0 0)"/><path class="cls-4" d="M137.05,112a1.63,1.63,0,0,1-1.25-.5,2.42,2.42,0,0,1,0-2.84,1.62,1.62,0,0,1,1.28-.52,2.69,2.69,0,0,1,.93.17l-.1.3a2.61,2.61,0,0,0-.83-.16,1.29,1.29,0,0,0-1,.42,1.89,1.89,0,0,0-.35,1.22,1.79,1.79,0,0,0,.35,1.17,1.2,1.2,0,0,0,1,.43,2.46,2.46,0,0,0,.94-.18v.31A2.1,2.1,0,0,1,137.05,112Z" transform="translate(0 0)"/><path class="cls-4" d="M142.38,110.09a2.13,2.13,0,0,1-.44,1.42,1.52,1.52,0,0,1-1.22.51,1.57,1.57,0,0,1-.86-.24,1.45,1.45,0,0,1-.57-.67,2.54,2.54,0,0,1-.2-1,2.12,2.12,0,0,1,.44-1.42,1.53,1.53,0,0,1,1.21-.51,1.47,1.47,0,0,1,1.2.52A2.05,2.05,0,0,1,142.38,110.09Zm-2.93,0a1.89,1.89,0,0,0,.33,1.19,1.15,1.15,0,0,0,1,.43,1.13,1.13,0,0,0,.95-.43,1.89,1.89,0,0,0,.34-1.19,1.86,1.86,0,0,0-.35-1.2,1.28,1.28,0,0,0-1.9,0A1.9,1.9,0,0,0,139.45,110.09Z" transform="translate(0 0)"/><path class="cls-4" d="M148.47,112v-2.44a1.22,1.22,0,0,0-.21-.79.8.8,0,0,0-.65-.25,1,1,0,0,0-.84.31,1.45,1.45,0,0,0-.28,1V112h-.34v-2.54c0-.63-.29-.94-.87-.94a1,1,0,0,0-.85.34,1.84,1.84,0,0,0-.26,1.09v2h-.34v-3.71h.28l.07.5h0a1.05,1.05,0,0,1,.44-.42,1.22,1.22,0,0,1,.62-.16,1.06,1.06,0,0,1,1.13.66h0a1.33,1.33,0,0,1,.48-.49,1.48,1.48,0,0,1,.7-.17,1.18,1.18,0,0,1,.91.33,1.47,1.47,0,0,1,.31,1V112Z" transform="translate(0 0)"/><path class="cls-4" d="M152.11,107l-1.86,5h-.36l1.86-5Z" transform="translate(0 0)"/><path class="cls-4" d="M153.19,107.2q0-.33.21-.33a.2.2,0,0,1,.17.09.43.43,0,0,1,.06.24.38.38,0,0,1-.06.24.2.2,0,0,1-.17.09Q153.19,107.53,153.19,107.2Zm.38,4.75h-.33v-3.71h.33Z" transform="translate(0 0)"/><path class="cls-4" d="M157.82,112v-2.41a1.15,1.15,0,0,0-.24-.81.94.94,0,0,0-.73-.26,1.23,1.23,0,0,0-1,.34,1.56,1.56,0,0,0-.31,1.09v2h-.34v-3.71h.29l.06.5h0a1.41,1.41,0,0,1,1.29-.58c.84,0,1.27.45,1.27,1.36V112Z" transform="translate(0 0)"/><path class="cls-4" d="M161.46,107l-1.86,5h-.36l1.86-5Z" transform="translate(0 0)"/><path class="cls-4" d="M162.92,112h-.34v-5.32h.34Z" transform="translate(0 0)"/><path class="cls-4" d="M164.87,108.24v2.4a1.18,1.18,0,0,0,.24.82,1,1,0,0,0,.73.25,1.3,1.3,0,0,0,1-.33,1.58,1.58,0,0,0,.31-1.09v-2.05h.34V112h-.29l-.06-.51h0a1.42,1.42,0,0,1-1.29.58c-.85,0-1.27-.45-1.27-1.36v-2.42Z" transform="translate(0 0)"/><path class="cls-4" d="M170.61,112a1.59,1.59,0,0,1-1.24-.5,2,2,0,0,1-.46-1.41,2.05,2.05,0,0,1,.47-1.43,1.62,1.62,0,0,1,1.28-.52,2.64,2.64,0,0,1,.93.17l-.1.3a2.61,2.61,0,0,0-.83-.16,1.29,1.29,0,0,0-1,.42,1.89,1.89,0,0,0-.35,1.22,1.79,1.79,0,0,0,.35,1.17,1.2,1.2,0,0,0,1,.43,2.46,2.46,0,0,0,.94-.18v.31A2.1,2.1,0,0,1,170.61,112Z" transform="translate(0 0)"/><path class="cls-4" d="M175.12,112l-.08-.59h0a1.87,1.87,0,0,1-.57.51,1.54,1.54,0,0,1-.7.15,1.22,1.22,0,0,1-.85-.28,1,1,0,0,1-.31-.78,1,1,0,0,1,.45-.84,2.48,2.48,0,0,1,1.31-.32l.71,0v-.25a1.29,1.29,0,0,0-.21-.8.86.86,0,0,0-.7-.27,2.36,2.36,0,0,0-1.07.29l-.12-.29a2.83,2.83,0,0,1,1.21-.29,1.21,1.21,0,0,1,.91.32,1.4,1.4,0,0,1,.3,1V112Zm-1.36-.24a1.28,1.28,0,0,0,.94-.34,1.3,1.3,0,0,0,.34-.94v-.37l-.65,0a2.39,2.39,0,0,0-1.12.24.71.71,0,0,0-.33.65.7.7,0,0,0,.21.54A.89.89,0,0,0,173.76,111.71Z" transform="translate(0 0)"/><path class="cls-4" d="M179.3,111a.89.89,0,0,1-.38.77,1.83,1.83,0,0,1-1.08.27,2.6,2.6,0,0,1-1.18-.23v-.37a2.56,2.56,0,0,0,1.18.28,1.59,1.59,0,0,0,.84-.18A.56.56,0,0,0,179,111a.61.61,0,0,0-.23-.47,2.35,2.35,0,0,0-.75-.37,4.39,4.39,0,0,1-.78-.35,1.19,1.19,0,0,1-.34-.33.78.78,0,0,1-.12-.44.8.8,0,0,1,.35-.67,1.73,1.73,0,0,1,1-.24,3,3,0,0,1,1.15.23l-.13.31a2.71,2.71,0,0,0-1-.23,1.48,1.48,0,0,0-.72.15.45.45,0,0,0-.26.42.55.55,0,0,0,.2.46,2.75,2.75,0,0,0,.81.39,3.47,3.47,0,0,1,.73.33,1.24,1.24,0,0,1,.35.33A.86.86,0,0,1,179.3,111Z" transform="translate(0 0)"/><path class="cls-4" d="M182.16,112a1.61,1.61,0,0,1-1.25-.5,2.42,2.42,0,0,1,0-2.84,1.62,1.62,0,0,1,1.28-.52,2.59,2.59,0,0,1,.92.17l-.09.3a2.62,2.62,0,0,0-.84-.16,1.26,1.26,0,0,0-1,.42,1.83,1.83,0,0,0-.35,1.22,1.74,1.74,0,0,0,.35,1.17,1.18,1.18,0,0,0,1,.43,2.42,2.42,0,0,0,.94-.18v.31A2,2,0,0,1,182.16,112Z" transform="translate(0 0)"/><path class="cls-4" d="M184.71,108.24v2.4a1.18,1.18,0,0,0,.24.82.94.94,0,0,0,.73.25,1.28,1.28,0,0,0,1-.33,1.58,1.58,0,0,0,.32-1.09v-2.05h.33V112H187l-.06-.51h0a1.41,1.41,0,0,1-1.29.58c-.84,0-1.27-.45-1.27-1.36v-2.42Z" transform="translate(0 0)"/><path class="cls-4" d="M189.3,112H189v-5.32h.34Z" transform="translate(0 0)"/><path class="cls-4" d="M191.3,112H191v-5.32h.34Z" transform="translate(0 0)"/><path class="cls-4" d="M194.46,112a1.66,1.66,0,0,1-1.27-.5,2,2,0,0,1-.45-1.4,2.17,2.17,0,0,1,.44-1.42,1.43,1.43,0,0,1,1.18-.54,1.29,1.29,0,0,1,1,.46,1.86,1.86,0,0,1,.38,1.24v.28H193.1a1.76,1.76,0,0,0,.35,1.17,1.27,1.27,0,0,0,1,.4,3.2,3.2,0,0,0,.56,0,4.4,4.4,0,0,0,.61-.19v.3a2.67,2.67,0,0,1-.59.19A3.39,3.39,0,0,1,194.46,112Zm-.1-3.56a1.09,1.09,0,0,0-.86.36,1.58,1.58,0,0,0-.38,1h2.29a1.6,1.6,0,0,0-.28-1A.89.89,0,0,0,194.36,108.46Z" transform="translate(0 0)"/><path class="cls-4" d="M199.81,112v-2.41a1.15,1.15,0,0,0-.24-.81.94.94,0,0,0-.73-.26,1.23,1.23,0,0,0-1,.34,1.56,1.56,0,0,0-.31,1.09v2h-.34v-3.71h.28l.07.5h0a1.41,1.41,0,0,1,1.29-.58c.84,0,1.26.45,1.26,1.36V112Z" transform="translate(0 0)"/></g></g></g></svg>