<svg xmlns="http://www.w3.org/2000/svg" xmlns:xlink="http://www.w3.org/1999/xlink" viewBox="0 0 249.45 167.24"><defs><style>.cls-1{fill:none;}.cls-2{clip-path:url(#clip-path);}.cls-3{fill:#1d1d1b;}.cls-4{fill:#fff;}</style><clipPath id="clip-path"><rect class="cls-1" width="249.45" height="167.24"/></clipPath></defs><title>dltx-vard-front-svgAsset 3</title><g id="Layer_2" data-name="Layer 2"><g id="Layer_2-2" data-name="Layer 2"><g class="cls-2"><rect class="cls-3" width="249.45" height="167.24"/><path class="cls-4" d="M87.37,74.19h2.08a.64.64,0,0,1-.15.41.57.57,0,0,0-.1.36l0,16.11a4.47,4.47,0,0,0,.12,1.14H87.4a2.85,2.85,0,0,1-.12-.91V90.23a4.42,4.42,0,0,1-3.82,2.26c-2.39,0-4.92-2-4.92-6.57,0-4.73,2.85-6.4,5.2-6.4a3.85,3.85,0,0,1,3.63,2.13ZM80.43,85.6c0,4.08,2.08,5.17,3.48,5.17a3.27,3.27,0,0,0,3-2.35,7.28,7.28,0,0,0,.26-2.25A10.57,10.57,0,0,0,87,83.52a3.22,3.22,0,0,0-3.17-2.41C82.41,81.11,80.43,82.08,80.43,85.6Z"/><path class="cls-4" d="M98.63,74.21V90.65h3.64v1.56H93V90.65h3.67V75.78h-3.5V74.21Z"/><path class="cls-4" d="M111.63,76.18c.1.27-.1.44-.15.73-.13.69-.32,2.91-.32,2.91h4v1.62h-4.07c-.16,1.61-.23,3.22-.23,4.84a17.85,17.85,0,0,0,.08,2.38,2,2,0,0,0,2.08,2,4.82,4.82,0,0,0,2.77-1.13l.61,1.55a7,7,0,0,1-4,1.38,3.3,3.3,0,0,1-2.82-1.32,5.6,5.6,0,0,1-.73-3.37c0-2.1.09-4.2.26-6.32h-2.9l0-1.59h2.94l.24-3.32Z"/><path class="cls-4" d="M129.76,79.82l-4,6,4.54,6.36h-2.22l-3.41-4.81-3.22,4.81h-2.2l4.34-6.29-4.27-6.1h2.13l3.24,4.59,3.09-4.59Z"/><path class="cls-4" d="M138,92.52a1.56,1.56,0,1,1,1.6-1.56A1.58,1.58,0,0,1,138,92.52Z"/><path class="cls-4" d="M152.87,79.82V90.65h2.9v1.56h-8V90.65h3.16V81.41h-3V79.82Zm.47-4a1.41,1.41,0,1,1-1.4-1.39A1.4,1.4,0,0,1,153.34,75.84Z"/><path class="cls-4" d="M165.48,92.54c-3.12,0-5.8-2.65-5.8-6.42s2.7-6.55,5.86-6.55c2.81,0,5.51,2.24,5.51,6.51C171.05,90.18,168.41,92.54,165.48,92.54ZM161.74,86c0,3.06,1.78,4.91,3.75,4.91,1.81,0,3.59-1.58,3.59-4.7,0-3.39-1.89-4.94-3.68-4.94S161.74,82.92,161.74,86Z"/><path class="cls-4" d="M47.41,107h1.37a2.33,2.33,0,0,1,1.36.32,1.09,1.09,0,0,1,.44,1,1,1,0,0,1-.27.72,1.27,1.27,0,0,1-.77.37v0a1.53,1.53,0,0,1,.88.38,1.08,1.08,0,0,1,.28.8,1.3,1.3,0,0,1-.46,1.07,2,2,0,0,1-1.3.37H47.41Zm.35,2.23h1.1a1.7,1.7,0,0,0,1-.24.82.82,0,0,0,.32-.73.79.79,0,0,0-.36-.72,2,2,0,0,0-1.07-.23h-1Zm0,.3v2.16h1.18c.92,0,1.38-.37,1.38-1.13s-.48-1-1.46-1Z"/><path class="cls-4" d="M55.58,112v-5h.35v4.67h2.38V112Z"/><path class="cls-4" d="M67.15,109.44a2.8,2.8,0,0,1-.6,1.89,2,2,0,0,1-1.64.69,2.07,2.07,0,0,1-1.64-.69,2.87,2.87,0,0,1-.59-1.89,2.76,2.76,0,0,1,.6-1.88,2.05,2.05,0,0,1,1.64-.69,2,2,0,0,1,1.63.69A2.77,2.77,0,0,1,67.15,109.44Zm-4.09,0a2.55,2.55,0,0,0,.48,1.66,1.91,1.91,0,0,0,2.75,0,2.56,2.56,0,0,0,.48-1.67,2.5,2.5,0,0,0-.48-1.65,1.67,1.67,0,0,0-1.37-.58,1.71,1.71,0,0,0-1.38.58A2.53,2.53,0,0,0,63.06,109.44Z"/><path class="cls-4" d="M74.2,107.2a1.89,1.89,0,0,0-1.48.6,2.37,2.37,0,0,0-.54,1.64,2.49,2.49,0,0,0,.51,1.67,1.83,1.83,0,0,0,1.46.59,4.15,4.15,0,0,0,1.15-.16v.3a3.65,3.65,0,0,1-1.24.18,2.1,2.1,0,0,1-1.65-.68,2.75,2.75,0,0,1-.61-1.9,3,3,0,0,1,.29-1.35,2.1,2.1,0,0,1,.83-.89,2.46,2.46,0,0,1,1.26-.32,3.07,3.07,0,0,1,1.31.27l-.14.32A2.59,2.59,0,0,0,74.2,107.2Z"/><path class="cls-4" d="M83.55,112h-.43l-1.92-2.64-.66.59v2h-.35v-5h.35v2.6l.55-.55,2-2h.44l-2,2.12Z"/><path class="cls-4" d="M90.16,107.2a1.9,1.9,0,0,0-1.48.6,2.37,2.37,0,0,0-.54,1.64,2.49,2.49,0,0,0,.51,1.67,1.84,1.84,0,0,0,1.46.59,4.15,4.15,0,0,0,1.15-.16v.3A3.65,3.65,0,0,1,90,112a2.1,2.1,0,0,1-1.65-.68,2.75,2.75,0,0,1-.61-1.9,3,3,0,0,1,.29-1.35,2.1,2.1,0,0,1,.83-.89,2.46,2.46,0,0,1,1.26-.32,3.07,3.07,0,0,1,1.31.27l-.14.32A2.56,2.56,0,0,0,90.16,107.2Z"/><path class="cls-4" d="M99.77,112h-.35v-2.46H96.5V112h-.35v-5h.35v2.22h2.92V107h.35Z"/><path class="cls-4" d="M107.36,110.19h-2l-.69,1.76h-.39l2-5h.22l2,5h-.39Zm-1.9-.32h1.79l-.68-1.8c-.06-.14-.13-.34-.21-.59a6,6,0,0,1-.2.6Z"/><path class="cls-4" d="M112.93,112v-5h.35v5Z"/><path class="cls-4" d="M122.11,112h-.35l-3-4.44h0c0,.53,0,.93,0,1.2V112h-.34v-5h.35l3,4.43h0q0-.61,0-1.17V107h.34Z"/><path class="cls-4" d="M135.63,112h-2.74v-5h2.74v.32h-2.39v1.89h2.25v.32h-2.25v2.15h2.39Z"/><path class="cls-4" d="M144.17,112h-.35l-3-4.44h0c0,.53,0,.93,0,1.2V112h-.33v-5h.34l3,4.43h0q0-.61,0-1.17V107h.34Z"/><path class="cls-4" d="M151.32,109.43h1.85v2.28a4.08,4.08,0,0,1-1.63.31,2.37,2.37,0,0,1-1.82-.67,2.66,2.66,0,0,1-.63-1.89,2.92,2.92,0,0,1,.31-1.35,2.14,2.14,0,0,1,.9-.91,2.66,2.66,0,0,1,1.34-.33,3.43,3.43,0,0,1,1.46.3l-.14.32a3.15,3.15,0,0,0-1.34-.3,2.06,2.06,0,0,0-1.57.61,2.27,2.27,0,0,0-.58,1.64,2.33,2.33,0,0,0,.55,1.7,2.16,2.16,0,0,0,1.62.57,3.12,3.12,0,0,0,1.17-.19v-1.76h-1.49Z"/><path class="cls-4" d="M158.19,112v-5h.35v5Z"/><path class="cls-4" d="M167.37,112H167l-3-4.44h0c0,.53,0,.93,0,1.2V112h-.33v-5h.35l2.95,4.43h0q0-.61,0-1.17V107h.34Z"/><path class="cls-4" d="M175.29,112h-2.73v-5h2.73v.32h-2.38v1.89h2.25v.32h-2.25v2.15h2.38Z"/><path class="cls-4" d="M182.93,112H180.2v-5h2.73v.32h-2.38v1.89h2.25v.32h-2.25v2.15h2.38Z"/><path class="cls-4" d="M188.19,109.77V112h-.35v-5H189a2.26,2.26,0,0,1,1.38.35,1.22,1.22,0,0,1,.44,1,1.41,1.41,0,0,1-.26.85,1.49,1.49,0,0,1-.81.49l1.36,2.28h-.42l-1.29-2.18Zm0-.3h.95a1.54,1.54,0,0,0,1-.28,1,1,0,0,0,.34-.83,1,1,0,0,0-.34-.83,1.82,1.82,0,0,0-1.11-.26h-.83Z"/><path class="cls-4" d="M198.53,110.66a1.18,1.18,0,0,1-.46,1,1.85,1.85,0,0,1-1.22.37,3.88,3.88,0,0,1-1.4-.2v-.35a3.59,3.59,0,0,0,1.37.23,1.55,1.55,0,0,0,1-.29.88.88,0,0,0,.36-.74.89.89,0,0,0-.12-.47,1.22,1.22,0,0,0-.39-.34,5.09,5.09,0,0,0-.79-.33,2.62,2.62,0,0,1-1.06-.57,1.13,1.13,0,0,1-.29-.81,1.11,1.11,0,0,1,.44-.92,1.77,1.77,0,0,1,1.13-.35,3.25,3.25,0,0,1,1.32.27l-.13.3a3,3,0,0,0-1.19-.26,1.39,1.39,0,0,0-.88.25.86.86,0,0,0-.33.7.8.8,0,0,0,.43.78,6.43,6.43,0,0,0,.79.34,4,4,0,0,1,.88.39,1.18,1.18,0,0,1,.43.43A1.16,1.16,0,0,1,198.53,110.66Z"/><path class="cls-4" d="M89.13,154.25v-2.41a1.15,1.15,0,0,0-.24-.81.94.94,0,0,0-.73-.26,1.23,1.23,0,0,0-1,.34,1.56,1.56,0,0,0-.31,1.09v2.05h-.34v-5.32h.34v1.69l0,.48h0a1.3,1.3,0,0,1,.53-.49,1.86,1.86,0,0,1,.79-.15c.84,0,1.27.46,1.27,1.36v2.43Z"/><path class="cls-4" d="M91.65,154a2.34,2.34,0,0,0,.56-.06v.28a1.91,1.91,0,0,1-.57.08.92.92,0,0,1-.72-.26,1.23,1.23,0,0,1-.24-.83v-2.4h-.55v-.2l.55-.15.17-.84H91v.9h1.09v.29H91v2.35a1,1,0,0,0,.15.63A.54.54,0,0,0,91.65,154Z"/><path class="cls-4" d="M94,154a2.23,2.23,0,0,0,.56-.06v.28a1.89,1.89,0,0,1-.56.08,1,1,0,0,1-.73-.26,1.28,1.28,0,0,1-.23-.83v-2.4h-.55v-.2l.55-.15.17-.84h.17v.9h1.09v.29H93.37v2.35a1,1,0,0,0,.15.63A.54.54,0,0,0,94,154Z"/><path class="cls-4" d="M97,154.32a1.35,1.35,0,0,1-1.25-.64h0V154c0,.17,0,.36,0,.56v1.41h-.34v-5.39h.29l.06.53h0a1.33,1.33,0,0,1,1.22-.61,1.37,1.37,0,0,1,1.15.5,2.29,2.29,0,0,1,.4,1.44,2.17,2.17,0,0,1-.42,1.42A1.4,1.4,0,0,1,97,154.32Zm0-.3a1,1,0,0,0,.88-.43,1.93,1.93,0,0,0,.32-1.18c0-1.09-.4-1.64-1.19-1.64a1.17,1.17,0,0,0-1,.36,1.79,1.79,0,0,0-.3,1.16v.11a2,2,0,0,0,.29,1.25A1.15,1.15,0,0,0,96.94,154Z"/><path class="cls-4" d="M101.83,153.28a.89.89,0,0,1-.38.77,1.83,1.83,0,0,1-1.08.27,2.6,2.6,0,0,1-1.18-.23v-.37a2.56,2.56,0,0,0,1.18.28,1.59,1.59,0,0,0,.84-.18.55.55,0,0,0,.28-.49.6.6,0,0,0-.22-.47,2.47,2.47,0,0,0-.75-.37,4.39,4.39,0,0,1-.78-.35,1.08,1.08,0,0,1-.34-.33.78.78,0,0,1-.12-.44.77.77,0,0,1,.35-.66,1.65,1.65,0,0,1,1-.25,2.94,2.94,0,0,1,1.14.23l-.12.31a2.75,2.75,0,0,0-1-.23,1.48,1.48,0,0,0-.72.15.46.46,0,0,0-.27.42.56.56,0,0,0,.21.46,2.75,2.75,0,0,0,.81.39,3.74,3.74,0,0,1,.73.33,1.08,1.08,0,0,1,.34.33A.77.77,0,0,1,101.83,153.28Z"/><path class="cls-4" d="M102.72,150.93q0-.33.27-.33c.19,0,.28.11.28.33a.37.37,0,0,1-.08.26.28.28,0,0,1-.2.08.26.26,0,0,1-.19-.08A.33.33,0,0,1,102.72,150.93Zm0,3q0-.33.27-.33c.19,0,.28.11.28.33s-.09.34-.28.34S102.72,154.21,102.72,154Z"/><path class="cls-4" d="M106.13,149.25l-1.86,5h-.36l1.86-5Z"/><path class="cls-4" d="M108.52,149.25l-1.87,5h-.35l1.86-5Z"/><path class="cls-4" d="M112.12,150.54v.23l-.77,0a1.27,1.27,0,0,1,.31.84,1.12,1.12,0,0,1-.36.87,1.37,1.37,0,0,1-1,.33,1.53,1.53,0,0,1-.35,0,.89.89,0,0,0-.31.25.53.53,0,0,0-.11.31.3.3,0,0,0,.14.26,1,1,0,0,0,.45.08h.65a1.56,1.56,0,0,1,.93.24.88.88,0,0,1,.32.73,1,1,0,0,1-.48.9,2.38,2.38,0,0,1-1.36.32,1.85,1.85,0,0,1-1.08-.27.86.86,0,0,1-.39-.75.89.89,0,0,1,.24-.64,1.27,1.27,0,0,1,.64-.34.67.67,0,0,1-.26-.2.48.48,0,0,1-.1-.31.79.79,0,0,1,.47-.65,1,1,0,0,1-.5-.42,1.14,1.14,0,0,1-.19-.66,1.15,1.15,0,0,1,.36-.89,1.33,1.33,0,0,1,1-.34,1.65,1.65,0,0,1,.57.08Zm-3,4.34c0,.51.38.77,1.14.77,1,0,1.46-.32,1.46-.94a.52.52,0,0,0-.23-.48,1.39,1.39,0,0,0-.74-.15h-.61C109.45,154.08,109.11,154.34,109.11,154.88Zm.29-3.19a.84.84,0,0,0,.26.67,1.16,1.16,0,0,0,1.41,0,.9.9,0,0,0,.25-.68.92.92,0,0,0-.26-.71,1,1,0,0,0-.71-.24,1,1,0,0,0-.7.25A1,1,0,0,0,109.4,151.69Z"/><path class="cls-4" d="M112.83,149.5c0-.22.08-.33.22-.33a.17.17,0,0,1,.16.09.36.36,0,0,1,.07.24.37.37,0,0,1-.07.25.16.16,0,0,1-.16.08C112.91,149.83,112.83,149.72,112.83,149.5Zm.39,4.75h-.34v-3.71h.34Z"/><path class="cls-4" d="M115.45,154A2.34,2.34,0,0,0,116,154v.28a2,2,0,0,1-.57.08,1,1,0,0,1-.73-.26,1.28,1.28,0,0,1-.23-.83v-2.4h-.55v-.2l.55-.15.17-.84h.17v.9h1.09v.29h-1.09v2.35a1,1,0,0,0,.15.63A.55.55,0,0,0,115.45,154Z"/><path class="cls-4" d="M119.4,154.25v-2.41a1.15,1.15,0,0,0-.24-.81.94.94,0,0,0-.73-.26,1.23,1.23,0,0,0-1,.34,1.56,1.56,0,0,0-.31,1.09v2.05h-.34v-5.32h.34v1.69l0,.48h0a1.3,1.3,0,0,1,.53-.49,1.86,1.86,0,0,1,.79-.15c.84,0,1.27.46,1.27,1.36v2.43Z"/><path class="cls-4" d="M121.23,150.54v2.4a1.16,1.16,0,0,0,.24.82,1,1,0,0,0,.73.25,1.3,1.3,0,0,0,1-.33,1.63,1.63,0,0,0,.31-1.09v-2.05h.33v3.71h-.28l-.07-.51h0a1.38,1.38,0,0,1-1.28.58c-.85,0-1.27-.45-1.27-1.36v-2.42Z"/><path class="cls-4" d="M126.64,150.46a1.42,1.42,0,0,1,1.17.49,2.29,2.29,0,0,1,.4,1.44,2.18,2.18,0,0,1-.42,1.43,1.45,1.45,0,0,1-1.17.5,1.52,1.52,0,0,1-.71-.17,1.17,1.17,0,0,1-.5-.46h0l-.1.56h-.21v-5.32h.34v1.34c0,.2,0,.38,0,.55v.29h0a1.4,1.4,0,0,1,.51-.49A1.59,1.59,0,0,1,126.64,150.46Zm0,.31a1.1,1.1,0,0,0-.94.38,2.08,2.08,0,0,0-.28,1.24v.06a1.89,1.89,0,0,0,.29,1.2,1.11,1.11,0,0,0,.92.37,1.05,1.05,0,0,0,.92-.43,2.08,2.08,0,0,0,.31-1.21C127.85,151.31,127.44,150.77,126.63,150.77Z"/><path class="cls-4" d="M129.17,154q0-.33.27-.33c.19,0,.28.11.28.33s-.09.34-.28.34S129.17,154.21,129.17,154Z"/><path class="cls-4" d="M132.38,154.32a1.61,1.61,0,0,1-1.25-.5,2.42,2.42,0,0,1,0-2.84,1.66,1.66,0,0,1,1.28-.52,2.69,2.69,0,0,1,.93.17l-.1.3a2.61,2.61,0,0,0-.83-.16,1.29,1.29,0,0,0-1,.42,1.89,1.89,0,0,0-.35,1.22,1.84,1.84,0,0,0,.35,1.18,1.22,1.22,0,0,0,1,.42,2.37,2.37,0,0,0,.93-.18v.32A2.18,2.18,0,0,1,132.38,154.32Z"/><path class="cls-4" d="M137.3,152.39a2.13,2.13,0,0,1-.44,1.42,1.69,1.69,0,0,1-2.08.27,1.45,1.45,0,0,1-.57-.67,2.38,2.38,0,0,1-.2-1,2.12,2.12,0,0,1,.44-1.42,1.67,1.67,0,0,1,2.41,0A2.11,2.11,0,0,1,137.3,152.39Zm-2.94,0a1.89,1.89,0,0,0,.34,1.19,1.26,1.26,0,0,0,1.9,0,1.83,1.83,0,0,0,.34-1.19,1.88,1.88,0,0,0-.34-1.2,1.15,1.15,0,0,0-.95-.42,1.14,1.14,0,0,0-1,.42A1.84,1.84,0,0,0,134.36,152.39Z"/><path class="cls-4" d="M143,154.25v-2.44a1.22,1.22,0,0,0-.21-.79.81.81,0,0,0-.65-.25,1.07,1.07,0,0,0-.85.32,1.47,1.47,0,0,0-.27,1v2.18h-.35v-2.54c0-.63-.28-.94-.86-.94a1,1,0,0,0-.85.34,1.76,1.76,0,0,0-.27,1.09v2.05h-.33v-3.71h.28l.07.5h0a1.05,1.05,0,0,1,.44-.42,1.17,1.17,0,0,1,.62-.16,1.07,1.07,0,0,1,1.13.66h0a1.35,1.35,0,0,1,.49-.49,1.45,1.45,0,0,1,.7-.17,1.18,1.18,0,0,1,.91.33,1.47,1.47,0,0,1,.3,1v2.43Z"/><path class="cls-4" d="M146.19,149.25l-1.87,5H144l1.86-5Z"/><path class="cls-4" d="M148.25,150.46a1.54,1.54,0,0,1,.7.15,1.45,1.45,0,0,1,.52.5h0c0-.28,0-.57,0-.84v-1.34h.34v5.32h-.22l-.09-.57h0a1.35,1.35,0,0,1-1.21.64,1.47,1.47,0,0,1-1.18-.48,2.1,2.1,0,0,1-.4-1.39,2.33,2.33,0,0,1,.4-1.48A1.41,1.41,0,0,1,148.25,150.46Zm0,.31a1,1,0,0,0-.91.43,2.06,2.06,0,0,0-.31,1.24c0,1.05.41,1.58,1.23,1.58a1.08,1.08,0,0,0,.92-.37,1.89,1.89,0,0,0,.29-1.2v-.06a2.08,2.08,0,0,0-.28-1.24A1.13,1.13,0,0,0,148.25,150.77Z"/><path class="cls-4" d="M151.4,154.25h-.34v-5.32h.34Z"/><path class="cls-4" d="M153.62,154a2.29,2.29,0,0,0,.56-.06v.28a1.91,1.91,0,0,1-.57.08.93.93,0,0,1-.72-.26,1.23,1.23,0,0,1-.24-.83v-2.4h-.55v-.2l.55-.15.17-.84H153v.9h1.09v.29H153v2.35a1,1,0,0,0,.15.63A.54.54,0,0,0,153.62,154Z"/><path class="cls-4" d="M155.9,152.34l-1.3-1.8H155l1.11,1.56,1.1-1.56h.37l-1.28,1.8,1.37,1.91h-.39l-1.17-1.66-1.18,1.66h-.37Z"/><path class="cls-4" d="M158.42,149.5c0-.22.08-.33.22-.33a.18.18,0,0,1,.16.09.43.43,0,0,1,.06.24.44.44,0,0,1-.06.25.17.17,0,0,1-.16.08C158.5,149.83,158.42,149.72,158.42,149.5Zm.39,4.75h-.34v-3.71h.34Z"/><path class="cls-4" d="M163.13,152.39a2.13,2.13,0,0,1-.44,1.42,1.69,1.69,0,0,1-2.08.27,1.45,1.45,0,0,1-.57-.67,2.38,2.38,0,0,1-.2-1,2.12,2.12,0,0,1,.44-1.42,1.67,1.67,0,0,1,2.41,0A2.11,2.11,0,0,1,163.13,152.39Zm-2.94,0a1.89,1.89,0,0,0,.34,1.19,1.13,1.13,0,0,0,.95.43,1.12,1.12,0,0,0,1-.43,1.83,1.83,0,0,0,.34-1.19,1.88,1.88,0,0,0-.34-1.2,1.15,1.15,0,0,0-1-.42,1.14,1.14,0,0,0-.95.42A1.84,1.84,0,0,0,160.19,152.39Z"/></g></g></g></svg>