<?xml version="1.0" encoding="utf-8"?>
<!-- Generator: Adobe Illustrator 24.3.2, SVG Export Plug-In . SVG Version: 6.00 Build 0)  -->
<svg version="1.1" id="Layer_1" xmlns="http://www.w3.org/2000/svg" xmlns:xlink="http://www.w3.org/1999/xlink" x="0px" y="0px"
	 viewBox="0 0 435 435" style="enable-background:new 0 0 435 435;" xml:space="preserve">
<style type="text/css">
	.st0{fill:none;}
</style>
<g>
	<path class="st0" d="M217.5,0H0v217.5C0,97.4,97.4,0,217.5,0z"/>
	<path class="st0" d="M0,217.5V435h212.2C94.5,432.2,0,335.9,0,217.5z"/>
	<path class="st0" d="M217.5,0C335.9,0,432.2,94.5,435,212.2V0H217.5z"/>
	<path class="st0" d="M222.8,435H435V217.5C435,335.9,340.5,432.2,222.8,435z"/>
	<polygon points="307.3,280 303.9,289.6 310.7,289.6 307.3,280 	"/>
	<path d="M217.5,0C97.4,0,0,97.4,0,217.5C0,335.9,94.5,432.2,212.2,435h10.6C340.5,432.2,435,335.9,435,217.5v-5.3
		C432.2,94.5,335.9,0,217.5,0z M136.7,262.4l-0.9-13.3h-0.4c-5,9.4-15.1,15.2-27.2,15.2c-20,0-35.9-17.1-35.9-42.8
		c-0.1-28.1,17.4-44.8,37.6-44.8c11.5,0,19.7,4.8,23.5,10.9h0.3v-47.4h21.2h0.1v98.7c0,8.6,0.3,17.8,0.7,23.5H136.7z M195.5,262.3
		h-21.2V140.1h21.2V262.3z M266.4,194.3h-20.2v36.9c0,10.3,2.7,15.5,10.9,15.5c3.6,0,6.4-0.4,8.2-0.9l0.4,16.1
		c-3.2,1.2-8.7,2.1-15.4,2.1c-7.8,0-14.3-2.7-18.2-6.9c-4.6-4.8-6.6-12.5-6.6-23.5v-39.4h-11.9v-15.8h11.9v-38.4h20.8v0.1v38.4h20.2
		V194.3z M294.7,298.5h-15.2v-22.4h3.9v19h11.3V298.5z M313.8,298.6l-2.1-6h-8.9l-2.1,6h-4l8.5-22.5h4.2l8.5,22.5H313.8z
		 M339.8,294.8c-0.3,0.7-0.8,1.4-1.5,2c-0.7,0.5-1.5,1-2.5,1.3c-1,0.3-2.3,0.5-3.7,0.5h-10.2v-22.5h10.8c2,0,3.6,0.5,4.8,1.4
		c1.2,0.9,1.8,2.3,1.8,4.2c0,1.1-0.3,2.1-0.8,2.9c-0.5,0.8-1.3,1.4-2.3,1.9c1.3,0.3,2.4,1,3.1,2c0.7,1,1.1,2.3,1.1,3.8
		C340.2,293.2,340.1,294,339.8,294.8z M361.6,295.3c-0.5,0.9-1.2,1.6-2,2.2c-0.8,0.5-1.7,1-2.8,1.3s-2.1,0.4-3.2,0.4
		c-1.3,0-2.5-0.1-3.6-0.5c-1.1-0.3-2.1-0.8-3-1.5c-0.8-0.7-1.5-1.5-2-2.5c-0.5-1-0.7-2.2-0.8-3.6h3.9v-0.1c0,0.9,0.1,1.6,0.5,2.2
		c0.3,0.6,0.7,1.1,1.2,1.5c0.5,0.4,1.1,0.7,1.8,0.9c0.7,0.2,1.4,0.3,2.2,0.3c0.9,0,1.5-0.1,2.1-0.3c0.6-0.2,1.1-0.5,1.5-0.7
		c0.4-0.3,0.7-0.7,0.8-1.1c0.1-0.4,0.3-0.8,0.3-1.3c0-0.9-0.2-1.5-0.6-1.9c-0.4-0.4-0.8-0.7-1.3-0.9c-0.8-0.3-1.7-0.6-2.7-0.8
		c-1.1-0.3-2.3-0.6-3.9-1c-0.9-0.3-1.7-0.6-2.3-1c-0.6-0.4-1.1-0.9-1.5-1.3c-0.4-0.5-0.7-1-0.8-1.6c-0.1-0.5-0.2-1.1-0.2-1.7
		c0-1.1,0.2-2.1,0.7-3c0.5-0.8,1.1-1.5,1.9-2.1c0.7-0.5,1.6-0.9,2.6-1.2c1-0.3,1.9-0.4,3-0.4c1.1,0,2.3,0.1,3.3,0.5
		c1,0.3,1.9,0.7,2.7,1.3c0.8,0.6,1.4,1.3,1.9,2.3c0.5,0.9,0.7,1.9,0.7,3.1H358c-0.1-1.5-0.6-2.5-1.5-3.1c-0.9-0.6-2-0.9-3.4-0.9
		c-0.5,0-0.9,0-1.4,0.1c-0.5,0.1-0.9,0.3-1.3,0.5c-0.4,0.2-0.7,0.5-1,0.9c-0.3,0.4-0.4,0.9-0.4,1.4c0,0.8,0.3,1.4,0.7,1.9
		c0.5,0.5,1.1,0.8,1.9,1c0.1,0,0.4,0.1,1,0.3c0.5,0.1,1.2,0.3,1.9,0.5c0.7,0.2,1.4,0.4,2.1,0.5c0.7,0.2,1.1,0.3,1.5,0.4
		c0.7,0.2,1.3,0.5,1.9,0.9c0.5,0.4,1,0.9,1.3,1.3c0.3,0.5,0.6,1.1,0.8,1.7c0.2,0.6,0.3,1.1,0.3,1.7
		C362.4,293.4,362.1,294.4,361.6,295.3z M362.8,203l-16.8,10.2c-4.5,2.7-8.9,5.2-13.5,7.6v0.4c4.8,2.4,9.1,4.9,13.6,7.5l16.7,9.7
		v23.3l-42.7-29l-41,28v-23.5V237v0.1l15.8-9.9c4.5-2.8,8.7-5.2,13-7.6v-0.4c-4.7-2.4-9-4.8-13.3-7.3l-15.5-9.3v-23.1l40.2,28
		l43.6-28.6V203z"/>
	<path d="M133.2,207.9c-1.9-8.2-8.7-14.9-18.2-14.9c-13.7,0-21.2,12.1-21.2,27.6s7.6,26.6,21,26.6c8.7,0,16.2-5.9,18.3-15.1
		c0.5-1.9,0.7-4,0.7-6.2v-12.5h-0.1C133.7,211.8,133.6,209.6,133.2,207.9z"/>
	<path d="M332.6,288.4h-6.8v7h6.8c1.2,0,2.1-0.3,2.7-0.9c0.7-0.6,1-1.5,1-2.6c0-1.1-0.3-1.9-1-2.5
		C334.7,288.7,333.8,288.4,332.6,288.4z"/>
	<path d="M334.5,284.7c0.6-0.5,0.9-1.3,0.9-2.3c0-1.1-0.3-1.9-0.9-2.4c-0.5-0.5-1.3-0.7-2.4-0.7h-6.4v6.2h6.4
		C333.1,285.5,333.8,285.3,334.5,284.7z"/>
</g>
</svg>
