<?xml version="1.0" encoding="utf-8"?>
<!-- Generator: Adobe Illustrator 24.3.2, SVG Export Plug-In . SVG Version: 6.00 Build 0)  -->
<svg version="1.1" id="Layer_1" xmlns="http://www.w3.org/2000/svg" xmlns:xlink="http://www.w3.org/1999/xlink" x="0px" y="0px"
	 viewBox="0 0 435 435" style="enable-background:new 0 0 435 435;" xml:space="preserve">
<style type="text/css">
	.st0{fill:#FFFFFF;}
</style>
<g>
	<g>
		<path d="M435,217.5c0,120.1-97.4,217.5-217.5,217.5C97.3,435.1,0,337.6,0,217.5C0,97.4,97.4,0,217.5,0
			C337.7,0,435.1,97.4,435,217.5L435,217.5z"/>
		<path class="st0" d="M154.9,140.1v98.7c0,8.6,0.3,17.8,0.7,23.5h-18.8l-0.9-13.3h-0.4c-5,9.4-15.1,15.2-27.2,15.2
			c-20,0-35.9-17.1-35.9-42.8c-0.1-28.1,17.4-44.8,37.6-44.8c11.5,0,19.7,4.8,23.5,10.9h0.3v-47.4H154.9L154.9,140.1z M133.7,213.4
			c0-1.7-0.1-3.8-0.5-5.5c-1.9-8.2-8.7-14.9-18.2-14.9c-13.7,0-21.2,12.1-21.2,27.6s7.6,26.6,21,26.6c8.7,0,16.2-5.9,18.3-15.1
			c0.5-1.9,0.7-4,0.7-6.2L133.7,213.4L133.7,213.4z"/>
		<path class="st0" d="M174.3,140.1h21.2v122.2h-21.2V140.1z"/>
		<path class="st0" d="M246.2,140.1v38.4h20.2v15.8h-20.2v36.9c0,10.3,2.7,15.5,10.9,15.5c3.6,0,6.4-0.4,8.2-0.9l0.4,16.1
			c-3.2,1.2-8.7,2.1-15.4,2.1c-7.8,0-14.3-2.7-18.2-6.9c-4.6-4.8-6.6-12.5-6.6-23.5v-39.4h-11.9v-15.8h11.9v-38.4h20.8V140.1z"/>
		<path class="st0" d="M279.6,276.1h3.9v19h11.3v3.4h-15.2V276.1z"/>
		<path class="st0" d="M305.2,276.1h4.2l8.5,22.5h-4.2l-2.1-6h-8.9l-2.1,6h-4L305.2,276.1z M303.9,289.6h6.8l-3.4-9.7h-0.1
			L303.9,289.6z"/>
		<path class="st0" d="M321.9,276.1h10.8c2,0,3.6,0.5,4.8,1.4c1.2,0.9,1.8,2.3,1.8,4.2c0,1.1-0.3,2.1-0.8,2.9
			c-0.5,0.8-1.3,1.4-2.3,1.9c1.3,0.3,2.4,1,3.1,2c0.7,1,1.1,2.3,1.1,3.8c0,0.9-0.1,1.7-0.5,2.5c-0.3,0.7-0.8,1.4-1.5,2
			c-0.7,0.5-1.5,1-2.5,1.3c-1,0.3-2.3,0.5-3.7,0.5h-10.2V276.1z M325.8,285.5h6.4c0.9,0,1.7-0.3,2.3-0.8c0.6-0.5,0.9-1.3,0.9-2.3
			c0-1.1-0.3-1.9-0.9-2.4c-0.5-0.5-1.3-0.7-2.4-0.7h-6.4V285.5z M325.8,295.4h6.8c1.2,0,2.1-0.3,2.7-0.9c0.7-0.6,1-1.5,1-2.6
			c0-1.1-0.3-1.9-1-2.5c-0.7-0.6-1.5-0.9-2.7-0.9h-6.8V295.4z"/>
		<path class="st0" d="M348.2,291.1c0,0.9,0.1,1.6,0.5,2.2c0.3,0.6,0.7,1.1,1.2,1.5c0.5,0.4,1.1,0.7,1.8,0.9
			c0.7,0.2,1.4,0.3,2.2,0.3c0.9,0,1.5-0.1,2.1-0.3c0.6-0.2,1.1-0.5,1.5-0.7c0.4-0.3,0.7-0.7,0.8-1.1c0.1-0.4,0.3-0.8,0.3-1.3
			c0-0.9-0.2-1.5-0.6-1.9c-0.4-0.4-0.8-0.7-1.3-0.9c-0.8-0.3-1.7-0.6-2.7-0.8c-1.1-0.3-2.3-0.6-3.9-1c-0.9-0.3-1.7-0.6-2.3-1
			c-0.6-0.4-1.1-0.9-1.5-1.3c-0.4-0.5-0.7-1-0.8-1.6c-0.1-0.5-0.2-1.1-0.2-1.7c0-1.1,0.2-2.1,0.7-3c0.5-0.8,1.1-1.5,1.9-2.1
			c0.7-0.5,1.6-0.9,2.6-1.2c1-0.3,1.9-0.4,3-0.4c1.1,0,2.3,0.1,3.3,0.5c1,0.3,1.9,0.7,2.7,1.3c0.8,0.6,1.4,1.3,1.9,2.3
			c0.5,0.9,0.7,1.9,0.7,3.1H358c-0.1-1.5-0.6-2.5-1.5-3.1c-0.9-0.6-2-0.9-3.4-0.9c-0.5,0-0.9,0-1.4,0.1c-0.5,0.1-0.9,0.3-1.3,0.5
			c-0.4,0.2-0.7,0.5-1,0.9c-0.3,0.4-0.4,0.9-0.4,1.4c0,0.8,0.3,1.4,0.7,1.9c0.5,0.5,1.1,0.8,1.9,1c0.1,0,0.4,0.1,1,0.3
			c0.5,0.1,1.2,0.3,1.9,0.5c0.7,0.2,1.4,0.4,2.1,0.5c0.7,0.2,1.1,0.3,1.5,0.4c0.7,0.2,1.3,0.5,1.9,0.9c0.5,0.4,1,0.9,1.3,1.3
			c0.3,0.5,0.6,1.1,0.8,1.7c0.2,0.6,0.3,1.1,0.3,1.7c0,1.3-0.3,2.3-0.7,3.2c-0.5,0.9-1.2,1.6-2,2.2c-0.8,0.5-1.7,1-2.8,1.3
			s-2.1,0.4-3.2,0.4c-1.3,0-2.5-0.1-3.6-0.5c-1.1-0.3-2.1-0.8-3-1.5c-0.8-0.7-1.5-1.5-2-2.5c-0.5-1-0.7-2.2-0.8-3.6L348.2,291.1
			L348.2,291.1z"/>
		<path class="st0" d="M279.1,237.2l15.8-9.9c4.5-2.8,8.7-5.2,13-7.6v-0.4c-4.7-2.4-9-4.8-13.3-7.3l-15.5-9.3v-23.1l40.2,28
			l43.6-28.6v24l-16.8,10.2c-4.5,2.7-8.9,5.2-13.5,7.6v0.4c4.8,2.4,9.1,4.9,13.6,7.5l16.7,9.7v23.3l-42.7-29l-41,28V237V237.2z"/>
	</g>
</g>
</svg>
