<svg xmlns="http://www.w3.org/2000/svg" xmlns:xlink="http://www.w3.org/1999/xlink" viewBox="0 0 249.45 167.24"><defs><style>.cls-1{fill:none;}.cls-2{clip-path:url(#clip-path);}.cls-3{fill:#fff;}.cls-4{fill:#1d1d1b;}</style><clipPath id="clip-path"><rect class="cls-1" width="249.45" height="167.24"/></clipPath></defs><title>dltx-card-steve-svgAsset 4</title><g id="Layer_2" data-name="Layer 2"><g id="Layer_2-2" data-name="Layer 2"><g class="cls-2"><rect class="cls-3" width="249.45" height="167.24"/><path class="cls-4" d="M47.28,79a.2.2,0,0,1-.14-.22.42.42,0,0,0-.06-.26,4.08,4.08,0,0,0-3.44-1.67c-1.93,0-3,1.18-3,2.47a3,3,0,0,0,1.73,2.52c1.54.9,3.92,1.38,5.39,2.76A4.11,4.11,0,0,1,49,87.62c0,2.12-1.52,4.88-5.63,4.88a7,7,0,0,1-5.29-2.18l1.12-1.94a.26.26,0,0,1,.12.26.36.36,0,0,0,.08.29,5.16,5.16,0,0,0,4,1.86c2.45,0,3.69-1.59,3.69-3.06a2.66,2.66,0,0,0-1.42-2.33C44.44,84.6,42,84,40.44,82.86a4,4,0,0,1-1.79-3.29c0-2.31,2.09-4.33,5.14-4.33a6,6,0,0,1,4.68,2.11Z"/><path class="cls-4" d="M57.46,76.18c.09.27-.1.44-.15.73-.13.69-.32,2.92-.32,2.92h4v1.61H57c-.16,1.61-.24,3.22-.24,4.84a20.52,20.52,0,0,0,.08,2.38,2,2,0,0,0,2.08,2,4.87,4.87,0,0,0,2.78-1.12l.6,1.54a7,7,0,0,1-4,1.38,3.29,3.29,0,0,1-2.82-1.32,5.6,5.6,0,0,1-.73-3.37c0-2.1.09-4.2.26-6.32h-2.9l0-1.59h3l.23-3.32Z"/><path class="cls-4" d="M75.68,83.94a8.67,8.67,0,0,1,.09,2.36H67c.15,3.7,2.54,4.62,4.2,4.62a4.27,4.27,0,0,0,3.2-1.39l1.08,1A5.65,5.65,0,0,1,71,92.5c-3.36,0-5.94-2.21-5.94-6.33,0-4.52,2.73-6.63,5.68-6.63A4.78,4.78,0,0,1,75.68,83.94Zm-1.83.86A3.27,3.27,0,0,0,70.65,81c-1.33,0-3.21.84-3.6,3.76Z"/><path class="cls-4" d="M80.74,79.83c0,.22-.09.36-.09.52a.53.53,0,0,0,0,.18l3.58,9,2-4.6a23.62,23.62,0,0,0,1.68-5.14h1.76a30.65,30.65,0,0,1-1.85,5.42l-3,7.06H83.31L78.4,79.83Z"/><path class="cls-4" d="M102.77,83.94a9.54,9.54,0,0,1,.09,2.36H94.08c.14,3.7,2.54,4.62,4.19,4.62a4.28,4.28,0,0,0,3.21-1.39l1.07,1a5.64,5.64,0,0,1-4.43,1.92c-3.36,0-5.94-2.21-5.94-6.33,0-4.52,2.74-6.63,5.69-6.63A4.78,4.78,0,0,1,102.77,83.94Zm-1.83.86A3.27,3.27,0,0,0,97.74,81c-1.33,0-3.22.84-3.6,3.76Z"/><path class="cls-4" d="M120.55,75.34l4.18,8.25L129,75.31h1.42V92.24h-1.8V79.47L125,86.28h-.73l-3.41-6.71V92.24h-1.78V75.34Z"/><path class="cls-4" d="M139.33,79.83V90.65h2.9v1.56h-8V90.65h3.15V81.41h-3V79.83Zm.47-4a1.41,1.41,0,1,1-1.41-1.39A1.4,1.4,0,0,1,139.8,75.84Z"/><path class="cls-4" d="M152.8,74.21V90.65h3.65v1.56h-9.28V90.65h3.67V75.78h-3.51V74.21Z"/><path class="cls-4" d="M162.49,74.19a.32.32,0,0,1-.15.31.31.31,0,0,0-.16.3v6.94a4.41,4.41,0,0,1,3.82-2.2c2.43,0,5,2,5,6.33,0,4.49-2.63,6.65-5.17,6.65a4.41,4.41,0,0,1-3.66-1.94l-.68,1.63H160.2v-18Zm0,8.84a6.79,6.79,0,0,0-.33,2.59,19,19,0,0,0,.08,2.45,2.89,2.89,0,0,0,3,2.69c1.21,0,3.65-.69,3.65-4.48,0-4.37-2.46-5.06-3.62-5.06A3,3,0,0,0,162.51,83Z"/><path class="cls-4" d="M175.8,79.85v6.89a5.77,5.77,0,0,0,.43,2.67,2.65,2.65,0,0,0,2.37,1.52,3.41,3.41,0,0,0,2.86-1.84,4.75,4.75,0,0,0,.48-2.44v-6.8h2V91.09a3.63,3.63,0,0,0,.14,1.12H182a6.18,6.18,0,0,1-.05-1l0-.93a4.47,4.47,0,0,1-3.82,2.2A4.17,4.17,0,0,1,174.3,90a7.67,7.67,0,0,1-.49-3.25l0-6.89Z"/><path class="cls-4" d="M190.39,79.85l-.07,2.38a4.82,4.82,0,0,1,4.46-2.68,4.55,4.55,0,0,1,3.3,1.35l-.91,1.87a4.31,4.31,0,0,1-.46-.62,2.52,2.52,0,0,0-2-.93,4,4,0,0,0-3.48,2.09,4.73,4.73,0,0,0-.87,2.9v6h-2V79.85Z"/><path class="cls-4" d="M201.06,79.85h2V82a5.16,5.16,0,0,1,4.11-2.48,3.55,3.55,0,0,1,3.29,2.19,6.93,6.93,0,0,1,.45,3v7.5H209V84.76a4.09,4.09,0,0,0-.68-2.74,2.16,2.16,0,0,0-1.68-.78,4.22,4.22,0,0,0-3,1.72,3.17,3.17,0,0,0-.61,2.12v7.13h-2Z"/><path class="cls-4" d="M38.68,108.16a1.49,1.49,0,0,1,.69.15,1.47,1.47,0,0,1,.53.5h0c0-.28,0-.57,0-.84v-1.34h.33V112H40l-.08-.57h0a1.37,1.37,0,0,1-1.22.64,1.45,1.45,0,0,1-1.17-.48,2.1,2.1,0,0,1-.41-1.39,2.33,2.33,0,0,1,.4-1.48A1.41,1.41,0,0,1,38.68,108.16Zm0,.31a1,1,0,0,0-.92.43,2.14,2.14,0,0,0-.31,1.24c0,1,.41,1.58,1.23,1.58a1.08,1.08,0,0,0,.92-.37,1.88,1.88,0,0,0,.3-1.2v-.06a2.07,2.07,0,0,0-.29-1.24A1.1,1.1,0,0,0,38.68,108.47Z"/><path class="cls-4" d="M41.85,107.2q0-.33.21-.33a.2.2,0,0,1,.17.09.43.43,0,0,1,.06.24.44.44,0,0,1-.06.25.21.21,0,0,1-.17.08Q41.85,107.53,41.85,107.2Zm.38,4.75h-.34v-3.71h.34Z"/><path class="cls-4" d="M45.35,108.16a3.14,3.14,0,0,1,.51,0l-.07.33a1.86,1.86,0,0,0-.48-.06.94.94,0,0,0-.78.4,1.67,1.67,0,0,0-.3,1v2h-.34v-3.71h.29l0,.67h0a1.53,1.53,0,0,1,.48-.58A1.19,1.19,0,0,1,45.35,108.16Z"/><path class="cls-4" d="M48.53,112a1.66,1.66,0,0,1-1.27-.5,2,2,0,0,1-.45-1.4,2.17,2.17,0,0,1,.44-1.42,1.43,1.43,0,0,1,1.18-.54,1.27,1.27,0,0,1,1,.46,1.87,1.87,0,0,1,.38,1.25v.27H47.17a1.76,1.76,0,0,0,.35,1.17,1.27,1.27,0,0,0,1,.4,3.13,3.13,0,0,0,.56,0,4.4,4.4,0,0,0,.61-.19v.3a2.78,2.78,0,0,1-.58.19A3.61,3.61,0,0,1,48.53,112Zm-.1-3.56a1.09,1.09,0,0,0-.86.36,1.58,1.58,0,0,0-.38,1h2.29a1.6,1.6,0,0,0-.28-1A.89.89,0,0,0,48.43,108.46Z"/><path class="cls-4" d="M52.77,112a1.63,1.63,0,0,1-1.25-.5,2.42,2.42,0,0,1,0-2.84,1.62,1.62,0,0,1,1.28-.52,2.69,2.69,0,0,1,.93.17l-.1.3a2.61,2.61,0,0,0-.83-.16,1.29,1.29,0,0,0-1,.42,1.89,1.89,0,0,0-.35,1.22,1.84,1.84,0,0,0,.35,1.18,1.22,1.22,0,0,0,1,.42,2.46,2.46,0,0,0,.94-.18v.31A2.1,2.1,0,0,1,52.77,112Z"/><path class="cls-4" d="M56,111.72a2.34,2.34,0,0,0,.56-.06v.28A2,2,0,0,1,56,112a.89.89,0,0,1-.72-.27,1.18,1.18,0,0,1-.24-.82v-2.4h-.55v-.2l.55-.15.17-.84h.18v.9h1.09v.29H55.39v2.35a1.06,1.06,0,0,0,.15.63A.53.53,0,0,0,56,111.72Z"/><path class="cls-4" d="M60.87,110.09a2.09,2.09,0,0,1-.45,1.42,1.68,1.68,0,0,1-2.07.27,1.45,1.45,0,0,1-.57-.67,2.38,2.38,0,0,1-.2-1,2.07,2.07,0,0,1,.44-1.42,1.51,1.51,0,0,1,1.21-.51,1.47,1.47,0,0,1,1.2.52A2.11,2.11,0,0,1,60.87,110.09Zm-2.94,0a1.83,1.83,0,0,0,.34,1.19,1.26,1.26,0,0,0,1.9,0,1.83,1.83,0,0,0,.34-1.19,1.88,1.88,0,0,0-.34-1.2,1.17,1.17,0,0,0-1-.42,1.12,1.12,0,0,0-.94.42A1.84,1.84,0,0,0,57.93,110.09Z"/><path class="cls-4" d="M63.78,108.16a3.13,3.13,0,0,1,.5,0l-.06.33a2,2,0,0,0-.48-.06.92.92,0,0,0-.78.4,1.61,1.61,0,0,0-.31,1v2h-.34v-3.71h.29l0,.67h0a1.46,1.46,0,0,1,.49-.58A1.14,1.14,0,0,1,63.78,108.16Z"/><path class="cls-4" d="M67.62,108.63q0-.33.27-.33c.19,0,.28.11.28.33a.33.33,0,0,1-.08.26.28.28,0,0,1-.2.08.27.27,0,0,1-.19-.08A.37.37,0,0,1,67.62,108.63Zm0,3.05q0-.33.27-.33c.19,0,.28.11.28.33s-.09.34-.28.34S67.62,111.91,67.62,111.68Z"/><path class="cls-4" d="M69.71,108.63q0-.33.27-.33c.19,0,.28.11.28.33a.37.37,0,0,1-.08.26.28.28,0,0,1-.2.08.3.3,0,0,1-.2-.08A.37.37,0,0,1,69.71,108.63Zm0,3.05q0-.33.27-.33c.19,0,.28.11.28.33s-.09.34-.28.34S69.71,111.91,69.71,111.68Z"/><path class="cls-4" d="M75.61,109.34h1.48v.28H75.61v1.48h-.28v-1.48H73.85v-.28h1.48v-1.48h.28Z"/><path class="cls-4" d="M78.34,109.82a4.58,4.58,0,0,1,.26-1.64,1.94,1.94,0,0,1,1.93-1.31,2.21,2.21,0,0,1,.59.08v.3a1.8,1.8,0,0,0-.6-.09,1.55,1.55,0,0,0-1.32.61,3.18,3.18,0,0,0-.53,1.77h0a1.89,1.89,0,0,1,.59-.51,1.61,1.61,0,0,1,.71-.17,1.47,1.47,0,0,1,1.09.4,1.5,1.5,0,0,1,.4,1.11,1.7,1.7,0,0,1-.42,1.21A1.47,1.47,0,0,1,80,112a1.4,1.4,0,0,1-1.19-.58A2.6,2.6,0,0,1,78.34,109.82Zm1.63,1.9a1.13,1.13,0,0,0,.88-.35,1.52,1.52,0,0,0,.31-1,1.21,1.21,0,0,0-.31-.89,1.09,1.09,0,0,0-.84-.33,1.45,1.45,0,0,0-.65.16,1.33,1.33,0,0,0-.47.41.89.89,0,0,0-.18.52,1.73,1.73,0,0,0,.17.73,1.31,1.31,0,0,0,.46.55A1,1,0,0,0,80,111.72Z"/><path class="cls-4" d="M84.64,112H84.3v-3.64c0-.33,0-.67,0-1l-.1.1-1.06.83L83,108l1.35-1h.3Z"/><path class="cls-4" d="M90.62,110.67h-.86V112h-.32v-1.28H86.87v-.22l2.48-3.52h.41v3.45h.86Zm-1.18-.29V109c0-.69,0-1.26,0-1.73h0c0,.08-.19.3-.42.64l-1.76,2.52Z"/><path class="cls-4" d="M93,109a1.86,1.86,0,0,1,1.26.38,1.31,1.31,0,0,1,.46,1.07,1.5,1.5,0,0,1-.48,1.19,1.89,1.89,0,0,1-1.32.43,4,4,0,0,1-.7-.07,1.82,1.82,0,0,1-.56-.21v-.36a2.51,2.51,0,0,0,.65.26,2.43,2.43,0,0,0,.61.08,1.57,1.57,0,0,0,1.06-.35,1.19,1.19,0,0,0,.39-.94,1.08,1.08,0,0,0-.38-.87,1.62,1.62,0,0,0-1-.32,3.42,3.42,0,0,0-.93.13l-.21-.13L92,107h2.41v.33H92.29L92.14,109A5.25,5.25,0,0,1,93,109Z"/><path class="cls-4" d="M96,109.82a4.36,4.36,0,0,1,.27-1.64,2,2,0,0,1,.75-1,2,2,0,0,1,1.17-.33,2.16,2.16,0,0,1,.59.08v.3a1.8,1.8,0,0,0-.6-.09,1.57,1.57,0,0,0-1.32.61,3.1,3.1,0,0,0-.52,1.77h0A1.89,1.89,0,0,1,97,109a1.61,1.61,0,0,1,.71-.17,1.51,1.51,0,0,1,1.1.4,1.53,1.53,0,0,1,.39,1.11,1.74,1.74,0,0,1-.41,1.21,1.48,1.48,0,0,1-1.12.44,1.41,1.41,0,0,1-1.2-.58A2.66,2.66,0,0,1,96,109.82Zm1.64,1.9a1.12,1.12,0,0,0,.87-.35,1.47,1.47,0,0,0,.31-1,1.21,1.21,0,0,0-.31-.89,1.07,1.07,0,0,0-.83-.33,1.42,1.42,0,0,0-.65.16,1.28,1.28,0,0,0-.48.41.89.89,0,0,0-.18.52,1.73,1.73,0,0,0,.17.73,1.47,1.47,0,0,0,.46.55A1.07,1.07,0,0,0,97.64,111.72Z"/><path class="cls-4" d="M100.42,109.82a4.37,4.37,0,0,1,.26-1.64,1.94,1.94,0,0,1,1.93-1.31,2.08,2.08,0,0,1,.58.08v.3a1.72,1.72,0,0,0-.6-.09,1.55,1.55,0,0,0-1.31.61,3.18,3.18,0,0,0-.53,1.77h0a1.89,1.89,0,0,1,.59-.51,1.58,1.58,0,0,1,.71-.17,1.38,1.38,0,0,1,1.49,1.51,1.7,1.7,0,0,1-.42,1.21,1.47,1.47,0,0,1-1.12.44,1.43,1.43,0,0,1-1.2-.58A2.66,2.66,0,0,1,100.42,109.82Zm1.63,1.9a1.09,1.09,0,0,0,.87-.35,1.47,1.47,0,0,0,.32-1,1.25,1.25,0,0,0-.31-.89,1.11,1.11,0,0,0-.84-.33,1.45,1.45,0,0,0-.65.16,1.18,1.18,0,0,0-.47.41.89.89,0,0,0-.18.52,1.73,1.73,0,0,0,.17.73,1.31,1.31,0,0,0,.46.55A1,1,0,0,0,102.05,111.72Z"/><path class="cls-4" d="M106.71,112h-.33v-3.64c0-.33,0-.67,0-1a.52.52,0,0,1-.11.1l-1,.83-.2-.24,1.36-1h.29Z"/><path class="cls-4" d="M112.34,109.07a4.6,4.6,0,0,1-.26,1.65,2,2,0,0,1-.75,1,2.18,2.18,0,0,1-1.19.32,2.29,2.29,0,0,1-.66-.09v-.29a2.7,2.7,0,0,0,.35.07l.32,0a1.59,1.59,0,0,0,1.32-.62,3.07,3.07,0,0,0,.54-1.77H112a1.77,1.77,0,0,1-.59.5,1.54,1.54,0,0,1-.72.18,1.46,1.46,0,0,1-1.08-.39,1.43,1.43,0,0,1-.39-1.08,1.74,1.74,0,0,1,.42-1.22,1.55,1.55,0,0,1,2-.21,1.6,1.6,0,0,1,.57.76A3.24,3.24,0,0,1,112.34,109.07Zm-1.63-1.9a1.1,1.1,0,0,0-.86.37,1.42,1.42,0,0,0-.32,1,1.25,1.25,0,0,0,.3.9,1.13,1.13,0,0,0,.85.31,1.41,1.41,0,0,0,.64-.16,1.28,1.28,0,0,0,.48-.41,1,1,0,0,0,.17-.52,1.7,1.7,0,0,0-.16-.74,1.21,1.21,0,0,0-.44-.55A1.14,1.14,0,0,0,110.71,107.17Z"/><path class="cls-4" d="M113.66,109.82a4.36,4.36,0,0,1,.27-1.64,2,2,0,0,1,.75-1,2,2,0,0,1,1.17-.33,2.16,2.16,0,0,1,.59.08v.3a1.72,1.72,0,0,0-.6-.09,1.55,1.55,0,0,0-1.31.61,3.1,3.1,0,0,0-.53,1.77h0a1.92,1.92,0,0,1,.6-.51,1.57,1.57,0,0,1,.7-.17,1.5,1.5,0,0,1,1.1.4,1.53,1.53,0,0,1,.39,1.11,1.69,1.69,0,0,1-.41,1.21,1.48,1.48,0,0,1-1.12.44,1.41,1.41,0,0,1-1.2-.58A2.66,2.66,0,0,1,113.66,109.82Zm1.64,1.9a1.12,1.12,0,0,0,.87-.35,1.47,1.47,0,0,0,.31-1,1.24,1.24,0,0,0-.3-.89,1.11,1.11,0,0,0-.84-.33,1.45,1.45,0,0,0-.65.16,1.28,1.28,0,0,0-.48.41.87.87,0,0,0-.17.52,1.72,1.72,0,0,0,.16.73,1.47,1.47,0,0,0,.46.55A1.09,1.09,0,0,0,115.3,111.72Z"/><path class="cls-4" d="M121,108.13a1.09,1.09,0,0,1-.3.78,1.34,1.34,0,0,1-.78.41v0a1.59,1.59,0,0,1,.92.38,1.11,1.11,0,0,1,.31.83,1.29,1.29,0,0,1-.48,1.08,2.09,2.09,0,0,1-1.37.39,3.07,3.07,0,0,1-1.33-.28v-.34a2.49,2.49,0,0,0,.65.23,2.69,2.69,0,0,0,.67.09,1.73,1.73,0,0,0,1.13-.31,1,1,0,0,0,.38-.86.86.86,0,0,0-.39-.76,2,2,0,0,0-1.14-.27h-.54v-.33h.55a1.58,1.58,0,0,0,1-.29,1,1,0,0,0,.36-.81.83.83,0,0,0-.29-.66,1.17,1.17,0,0,0-.78-.26,2.11,2.11,0,0,0-.68.11,3.3,3.3,0,0,0-.69.36l-.17-.23a2.49,2.49,0,0,1,.7-.39,2.68,2.68,0,0,1,.83-.14,1.57,1.57,0,0,1,1.07.33A1.16,1.16,0,0,1,121,108.13Z"/><path class="cls-4" d="M124.38,112H124v-3.64c0-.33,0-.67,0-1l-.1.1-1.06.83-.19-.24,1.35-1h.3Z"/></g></g></g></svg>